<svg xmlns="http://www.w3.org/2000/svg" xmlns:xlink="http://www.w3.org/1999/xlink"><defs><symbol viewBox="0 0 24 24" id="icon-add"><path d="M0 0h24v24H0z" fill="none" /><path d="M12 2C6.48 2 2 6.48 2 12s4.48 10 10 10 10-4.48 10-10S17.52 2 12 2zm5 11h-4v4h-2v-4H7v-2h4V7h2v4h4v2z" fill="currentColor" /></symbol><symbol viewBox="0 0 24 24" id="icon-align-center"><path d="M7 15v2h10v-2H7zm-4 6h18v-2H3v2zm0-8h18v-2H3v2zm4-6v2h10V7H7zM3 3v2h18V3H3z" fill="currentColor" /><path d="M0 0h24v24H0z" fill="none" /></symbol><symbol viewBox="0 0 24 24" id="icon-align-left"><path d="M15 15H3v2h12v-2zm0-8H3v2h12V7zM3 13h18v-2H3v2zm0 8h18v-2H3v2zM3 3v2h18V3H3z" fill="currentColor" /><path d="M0 0h24v24H0z" fill="none" /></symbol><symbol viewBox="0 0 24 24" id="icon-align-right"><path d="M3 21h18v-2H3v2zm6-4h12v-2H9v2zm-6-4h18v-2H3v2zm6-4h12V7H9v2zM3 3v2h18V3H3z" fill="currentColor" /><path d="M0 0h24v24H0z" fill="none" /></symbol><symbol viewBox="0 0 24 24" id="icon-bold"><path d="M15.6 10.79c.97-.67 1.65-1.77 1.65-2.79 0-2.26-1.75-4-4-4H7v14h7.04c2.09 0 3.71-1.7 3.71-3.79 0-1.52-.86-2.82-2.15-3.42zM10 6.5h3c.83 0 1.5.67 1.5 1.5s-.67 1.5-1.5 1.5h-3v-3zm3.5 9H10v-3h3.5c.83 0 1.5.67 1.5 1.5s-.67 1.5-1.5 1.5z" fill="currentColor" /><path d="M0 0h24v24H0z" fill="none" /></symbol><symbol viewBox="0 0 108.2 122.88" id="icon-color-fill"><path d="M93.01 73.51c3.8 16.46 15.19 24.68 15.19 32.91 0 8.23-3.8 16.46-15.19 16.46s-15.19-8.23-15.19-16.46 11.4-16.45 15.19-32.91zM11.63 5.91L16.95.59c.8-.8 2.1-.8 2.9 0l16.19 16.19 8.33-8.33c2.25-2.25 5.94-2.25 8.19 0l42.68 42.68c2.25 2.25 2.25 5.94 0 8.19L52.56 102c-2.25 2.25-5.94 2.25-8.19 0L1.69 59.33c-2.25-2.25-2.25-5.94 0-8.19L27.82 25 11.63 8.81c-.8-.79-.8-2.1 0-2.9zm39.75 16.11l30.31 30.31c.89.89 1.28 2.09 1.19 3.26H14.06c-.1-1.17.3-2.37 1.18-3.26l30.31-30.31c1.61-1.6 4.23-1.6 5.83 0z" fill-rule="evenodd" clip-rule="evenodd" fill="currentColor" /></symbol><symbol viewBox="0 0 24 24" id="icon-italic"><path d="M0 0h24v24H0z" fill="none" /><path d="M10 4v3h2.21l-3.42 8H6v3h8v-3h-2.21l3.42-8H18V4z" fill="currentColor" /></symbol><symbol viewBox="0 0 39 40" id="icon-logo"><defs><g id="icon-logo_c"><defs></defs><g fill="none" fill-rule="evenodd"><path fill="#0F9D58" d="M9.5 2H24l9 9v24.5a2.5 2.5 0 01-2.5 2.5h-21A2.5 2.5 0 017 35.5v-31A2.5 2.5 0 019.5 2z" /><path fill="#263238" fill-opacity=".1" d="M7 35a2.5 2.5 0 002.5 2.5h21A2.5 2.5 0 0033 35v.5a2.5 2.5 0 01-2.5 2.5h-21A2.5 2.5 0 017 35.5V35z" /><path fill="#FFF" fill-opacity=".2" d="M9.5 2H24v.5H9.5A2.5 2.5 0 007 5v-.5A2.5 2.5 0 019.5 2z" /><path fill="url(#icon-logo_a)" fill-rule="nonzero" d="M17.5 8l8.5 8.5V9" /><path fill="#87CEAC" d="M24 2l9 9h-6.5A2.5 2.5 0 0124 8.5V2z" /><path fill="#F1F1F1" d="M13 18h14v14H13V18zm2 2v2h4v-2h-4zm0 4v2h4v-2h-4zm0 4v2h4v-2h-4zm6-8v2h4v-2h-4zm0 4v2h4v-2h-4zm0 4v2h4v-2h-4z" /><path fill="url(#icon-logo_b)" fill-opacity=".1" d="M2.5 0H17l9 9v24.5a2.5 2.5 0 01-2.5 2.5h-21A2.5 2.5 0 010 33.5v-31A2.5 2.5 0 012.5 0z" /></g></g></defs><use xlink:href="#icon-logo_c" /></symbol><radialGradient id="icon-logo_b" cx="3.168%" cy="2.718%" r="161.248%" fx="3.168%" fy="2.718%" gradientTransform="matrix(1 0 0 .72222 0 .008)"><stop stop-color="#FFF" offset="0%" /><stop stop-color="#FFF" stop-opacity="0" offset="100%" /></radialGradient><linearGradient id="icon-logo_a" x1="50.005%" x2="50.005%" y1="8.586%" y2="100.014%"><stop stop-color="#263238" stop-opacity=".2" offset="0%" /><stop stop-color="#263238" stop-opacity=".02" offset="100%" /></linearGradient><symbol viewBox="0 0 512 512" fill="currentColor" id="icon-text-color"><path d="M491.2 454.9l-.7.1v-.1H20v.1c-11.1.4-20 9.5-20 20.7s8.9 20.3 20 20.7v.1h470.5v-.1l.7.1c11.5 0 20.8-9.3 20.8-20.8s-9.3-20.8-20.8-20.8zM85.6 407.2h39.3c7.9 0 14.5-5.1 17-12.1l24.2-63.6h179.7l24.9 65.7h.1c2.7 5.5 8.1 9.4 14.5 9.9v.2h39.3v-.3l1.6.2c10 0 18-8.1 18-18 0-1.8-.4-3.6-.9-5.2h.1l-.4-1.1-.4-1L303.6 28h-.1c-2.4-7.2-9.1-12.4-17-12.4h-61c-8.1 0-14.9 5.4-17.1 12.7L68.6 383.2h.1c-.7 1.9-1.1 3.9-1.1 6 0 9.9 8.1 18 18 18zm170.2-323L326.3 271H185.4l70.4-186.8z" /></symbol><symbol viewBox="0 0 24 24" id="icon-underlined"><path d="M0 0h24v24H0z" fill="none" /><path d="M12 17c3.31 0 6-2.69 6-6V3h-2.5v8c0 1.93-1.57 3.5-3.5 3.5S8.5 12.93 8.5 11V3H6v8c0 3.31 2.69 6 6 6zm-7 2v2h14v-2H5z" fill="currentColor" /></symbol></defs></svg>